<svg width="42" height="28" viewBox="0 0 42 28" fill="none" xmlns="http://www.w3.org/2000/svg">
<g clip-path="url(#clip0_310_11)">
<path d="M11.8116 0L19.1211 16.5448H14.0958L9.57895 5.97722L5.02526 16.5448H0L7.33158 0H11.8116Z" fill="#040000"/>
<path d="M34.1011 0L41.4105 16.5448H36.3853L31.8684 5.97722L27.3148 16.5448H22.2895L29.6211 0H34.1011Z" fill="#040000"/>
<path d="M15.4737 24.4914C15.1367 24.3369 14.7652 24.2608 14.3905 24.2695C14.1463 24.2448 13.8994 24.274 13.6692 24.3546C13.439 24.4353 13.2319 24.5652 13.0642 24.734C12.8952 24.9574 12.8003 25.2228 12.7916 25.4968H13.7274C13.7407 25.378 13.7892 25.2651 13.8674 25.1709C13.9315 25.113 14.0081 25.0688 14.0921 25.0413C14.176 25.0138 14.2652 25.0036 14.3537 25.0114C14.5158 25.0017 14.6779 25.0303 14.8253 25.0946C14.8802 25.124 14.9249 25.1679 14.9537 25.2209C14.9825 25.2739 14.9942 25.3336 14.9874 25.3928C14.9871 25.4516 14.967 25.5089 14.9299 25.5562C14.8928 25.6036 14.8407 25.6386 14.7811 25.6563C14.6558 25.7015 14.5243 25.7295 14.3905 25.7395H14.0589C13.7615 25.7657 13.4718 25.8433 13.2042 25.9683C13.0312 26.0634 12.8899 26.2021 12.7962 26.3687C12.7025 26.5353 12.66 26.7233 12.6737 26.9114C12.6558 27.0638 12.6765 27.218 12.7341 27.3614C12.7918 27.5049 12.8847 27.6334 13.0053 27.7365C13.2337 27.9277 13.5325 28.0272 13.8379 28.0139C14.0959 28.0222 14.3512 27.9621 14.5747 27.8405C14.7481 27.7461 14.9047 27.6268 15.0389 27.4869V27.9029H15.9747V27.0015V25.3581C15.9917 25.1832 15.9532 25.0075 15.864 24.8532C15.7748 24.6989 15.639 24.573 15.4737 24.4914ZM14.9874 26.5092C14.9979 26.6288 14.978 26.7491 14.9293 26.86C14.8806 26.9709 14.8045 27.0694 14.7074 27.1471C14.5374 27.2609 14.3338 27.3215 14.1253 27.3205C14.0005 27.3247 13.8781 27.2879 13.7789 27.2165C13.73 27.1719 13.6921 27.1177 13.6679 27.0578C13.6437 26.9979 13.6338 26.9337 13.6389 26.8698C13.6359 26.7916 13.6555 26.7141 13.6958 26.6457C13.736 26.5773 13.7954 26.5205 13.8674 26.4814C14.0105 26.4193 14.1616 26.375 14.3168 26.3497H14.5379L14.7958 26.2873L14.9874 26.1971V26.5092Z" fill="#040000"/>
<path d="M11.3031 24.3596C11.4738 24.4273 11.6216 24.5376 11.7305 24.6786C11.8407 24.8096 11.9142 24.9646 11.9442 25.1293C11.9718 25.3014 11.9841 25.4753 11.981 25.6494V27.8821H10.9789V25.6563C10.9826 25.5421 10.96 25.4286 10.9126 25.3234C10.8668 25.2433 10.797 25.1776 10.7119 25.1344C10.6267 25.0913 10.53 25.0726 10.4337 25.0808C10.3176 25.0724 10.2017 25.0987 10.1024 25.156C10.0032 25.2132 9.92571 25.2986 9.88104 25.3997C9.8252 25.5272 9.79762 25.664 9.79998 25.8019V27.8821H8.84209V25.8019C8.85061 25.6468 8.82811 25.4916 8.77577 25.3442C8.73162 25.2604 8.66156 25.191 8.57478 25.1452C8.488 25.0994 8.38855 25.0794 8.28946 25.0877C8.18096 25.0767 8.07138 25.0949 7.97351 25.1404C7.87565 25.1858 7.79355 25.2565 7.73682 25.3442C7.67559 25.4824 7.6479 25.6316 7.65577 25.7811V27.9099H6.63156V24.3527H7.57472V24.8658C7.66163 24.718 7.7765 24.5864 7.91367 24.4775C8.12605 24.3295 8.38665 24.2559 8.65051 24.2695C8.8927 24.2573 9.1327 24.318 9.33577 24.4428C9.47986 24.5588 9.59124 24.7065 9.65998 24.8727C9.76726 24.6808 9.93096 24.5219 10.1316 24.4151C10.3368 24.3167 10.5644 24.2667 10.7947 24.2695C10.9616 24.2691 11.1268 24.2997 11.281 24.3596" fill="#040000"/>
<path d="M19.6958 24.5468C19.8283 24.6695 19.93 24.8184 19.9938 24.9828C20.0575 25.1471 20.0816 25.3227 20.0642 25.4968V27.8821H19.0695V25.7326C19.0768 25.5854 19.0491 25.4385 18.9884 25.3027C18.9367 25.2067 18.8538 25.1287 18.7518 25.0801C18.6498 25.0314 18.5339 25.0147 18.4211 25.0322C18.279 25.0216 18.1371 25.0542 18.0163 25.1254C17.8955 25.1966 17.8023 25.3025 17.7505 25.4275C17.6791 25.5995 17.6465 25.7837 17.6548 25.9683V27.8821H16.719V24.3527H17.6842V24.8658C17.7778 24.7184 17.8974 24.5871 18.0379 24.4775C18.2512 24.3306 18.5106 24.2549 18.7748 24.2625C19.1131 24.2464 19.4461 24.3476 19.7105 24.5468" fill="#040000"/>
<path d="M22.9158 24.4012C23.0904 24.4952 23.2372 24.6286 23.3431 24.7895V23.5275L24.3231 23.0421V27.896H23.38V27.3898C23.2684 27.5788 23.1057 27.7367 22.9084 27.8475C22.7074 27.9498 22.4811 28.0001 22.2526 27.9931C22.0404 27.995 21.8306 27.9502 21.64 27.8623C21.4494 27.7744 21.2832 27.6459 21.1547 27.4869C20.8492 27.1227 20.6924 26.6677 20.7126 26.2041C20.6906 25.7093 20.8435 25.2216 21.1474 24.8173C21.2818 24.6444 21.4584 24.5044 21.6622 24.409C21.8661 24.3137 22.0913 24.2659 22.3189 24.2695C22.5275 24.2642 22.7338 24.3121 22.9158 24.4081V24.4012ZM23.1516 26.9252C23.306 26.7009 23.3809 26.4363 23.3653 26.1694C23.384 26.0017 23.3633 25.8322 23.3048 25.6728C23.2462 25.5135 23.1511 25.3681 23.0263 25.2472C22.8901 25.1341 22.7143 25.0724 22.5326 25.0738C22.4097 25.067 22.2872 25.0918 22.1782 25.1455C22.0691 25.1993 21.9777 25.28 21.9137 25.3789C21.7831 25.6181 21.715 25.8832 21.715 26.1521C21.715 26.421 21.7831 26.686 21.9137 26.9252C21.9789 27.0205 22.07 27.0978 22.1775 27.1489C22.285 27.2001 22.405 27.2234 22.5253 27.2165C22.6478 27.2252 22.7706 27.2028 22.8808 27.1516C22.991 27.1004 23.0845 27.0222 23.1516 26.9252" fill="#040000"/>
<path d="M28.3021 27.4522C27.9218 27.8041 27.4097 28.0013 26.8763 28.0013C26.3429 28.0013 25.8309 27.8041 25.4505 27.4522C25.1489 27.0664 24.9862 26.5999 24.9862 26.1209C24.9862 25.6418 25.1489 25.1754 25.4505 24.7895C25.6369 24.6119 25.859 24.4709 26.1037 24.3747C26.3485 24.2785 26.6111 24.2289 26.8763 24.2289C27.1416 24.2289 27.4042 24.2785 27.6489 24.3747C27.8937 24.4709 28.1157 24.6119 28.3021 24.7895C28.6082 25.1736 28.7737 25.6407 28.7737 26.1209C28.7737 26.601 28.6082 27.0681 28.3021 27.4522V27.4522ZM27.5653 26.9391C27.7301 26.6954 27.81 26.4093 27.7937 26.1209C27.81 25.8324 27.7301 25.5463 27.5653 25.3026C27.4919 25.205 27.393 25.1269 27.2781 25.0758C27.1632 25.0248 27.0362 25.0026 26.9095 25.0114C26.7832 25.0058 26.6574 25.0295 26.5431 25.0802C26.4288 25.131 26.3294 25.2074 26.2537 25.3026C26.0888 25.5463 26.009 25.8324 26.0253 26.1209C26.009 26.4093 26.0888 26.6954 26.2537 26.9391C26.3279 27.0354 26.4272 27.1122 26.542 27.162C26.6569 27.2118 26.7834 27.2329 26.9095 27.2234C27.0355 27.2329 27.1621 27.2118 27.2769 27.162C27.3918 27.1122 27.4911 27.0354 27.5653 26.9391Z" fill="#040000"/>
<path d="M34.0716 24.3596C34.2445 24.4268 34.3948 24.5371 34.5063 24.6785C34.6141 24.8101 34.6851 24.9651 34.7126 25.1293C34.7279 25.3023 34.7279 25.4763 34.7126 25.6493V27.8821H33.7474V25.6562C33.7511 25.5421 33.7284 25.4285 33.681 25.3234C33.6365 25.2438 33.568 25.1784 33.4841 25.1352C33.4002 25.092 33.3047 25.0731 33.2095 25.0807C33.0924 25.0719 32.9753 25.0979 32.8748 25.1552C32.7743 25.2124 32.6955 25.298 32.6495 25.3997C32.5963 25.5277 32.5713 25.6645 32.5758 25.8019V27.8821H31.5958V25.8019C31.6043 25.6468 31.5818 25.4915 31.5295 25.3442C31.4874 25.2602 31.4189 25.1905 31.3331 25.1446C31.2474 25.0987 31.1487 25.0788 31.0505 25.0877C30.9409 25.0761 30.8301 25.0941 30.731 25.1395C30.6318 25.1849 30.5485 25.2559 30.4905 25.3442C30.4323 25.483 30.4071 25.6321 30.4168 25.7811V27.9098H29.4295V24.3526H30.3726V24.8658C30.4617 24.7194 30.5763 24.5881 30.7116 24.4774C30.9251 24.3528 31.1713 24.2867 31.4226 24.2867C31.6739 24.2867 31.9202 24.3528 32.1337 24.4774C32.2755 24.5938 32.3844 24.7416 32.4505 24.9074C32.5601 24.7169 32.7232 24.5586 32.9221 24.4497C33.1297 24.3505 33.3598 24.3005 33.5926 24.3041C33.7571 24.3032 33.9201 24.3338 34.0716 24.3942" fill="#040000"/>
</g>
<defs>
<clipPath id="clip0_310_11">
<rect width="41.4105" height="28" fill="white"/>
</clipPath>
</defs>
</svg>